#!OML:ASF F:\VICON\USERDATA\INSTALL\rory3\rory3.ASF
:FULLY-SPECIFIED
:DEGREES
77
root 0.055566518157618705 17.30443354500852 22.652305288145502 -2.889579667274921 1.213505001381299 -0.5550528224104652
lfemur 4.343209272692942 0.621208186314989 -21.3363710328687
ltibia 32.78228685114471
lfoot -5.431440179572193 -4.654027134253683
ltoes -11.981699976464842
rfemur -28.463803941848056 6.527549011528702 20.970992650658914
rtibia 26.12525898695548
rfoot -5.409854011803267 -8.392869129277328
rtoes 6.163228623826128
lowerback 10.204040704300546 -1.1060988974974257 -1.9976637657135177
upperback 0.531505787524208 -1.57910437578079 1.9723787759607885
thorax -4.628635598395756 -0.7958648535859256 3.644864260010407
lowerneck -15.93704541012737 -2.8354407588080046 -3.07085120844528
upperneck 23.169241626736877 -3.3907751480950723 1.437055954012109
head 10.13558240186664 -1.68360303636564 0.4872174562726202
lclavicle -1.3899186031104982e-15 -1.8458889573234694e-15
lhumerus -29.657634161992675 1.818243025323281 80.70539350114836
lradius 31.78370463919298
lwrist 4.784366818529037
lhand -26.298233485471133 25.245262266058354
lfingers 7.125019999999999
lthumb 0.14917694048011398 55.29538041856731
rclavicle -1.3858311681403313e-15 -1.8427247545783957e-15
rhumerus -35.25129614826975 -25.916628231139637 -73.16279671647304
rradius 20.93876177449234
rwrist 9.189223036415832
rhand -17.590466461375247 22.909897347761447
rfingers 7.125019999999999
rthumb 8.590544643617882 -6.697579112723704
78
root -0.028330062651484966 17.341764013387078 20.322899571591776 -3.4699261461661814 0.38608826945951713 -2.208787461278177
lfemur 0.7652515511152558 1.450092142968332 -19.018488583436568
ltibia 39.32836937116654
lfoot -5.17971813176622 -5.079107606108002
ltoes -12.813088770551174
rfemur -26.471559902847524 5.857500073435794 24.637089970401895
rtibia 28.48552905150715
rfoot -4.896924719294983 -7.119324981749729
rtoes 7.260655262567418
lowerback 10.72137679817681 -0.7875325915706155 -0.28381679905190205
upperback 0.5252743956256746 -0.949154740883519 2.2985159537651025
thorax -4.919931999638686 -0.5060764092083461 3.031711737121147
lowerneck -15.997519689443138 -2.764067322226399 -3.07504513264805
upperneck 23.31157398291764 -3.2450660392803363 1.3267634962476118
head 10.215571594882245 -1.6370585284476828 0.4937822371902086
lclavicle -1.3908813310324172e-15 -1.846771826243437e-15
lhumerus -29.950813726542254 2.215368758561625 80.83007918675075
lradius 31.3900078654084
lwrist 4.441819966195657
lhand -26.20228500361518 25.20030484486605
lfingers 7.125019999999999
lthumb 0.2705499555919979 55.20704334049936
rclavicle -1.3865797022737255e-15 -1.843405757525076e-15
rhumerus -35.62926394272165 -26.726232519738517 -72.13240783377051
rradius 20.088432420983874
rwrist 10.339861551994405
rhand -17.619776769945812 22.8731280612953
rfingers 7.125019999999999
rthumb 8.580603816440695 -6.746478510083546
79
root -0.019063478980094306 17.35436390873615 19.461641518969927 -3.6536919996063513 0.10848537452925466 -3.0086498313770673
lfemur -3.169110284448559 2.304728054765267 -17.304316642866016
ltibia 44.905605231419784
lfoot -4.735678605294597 -5.653644492013104
ltoes -13.298859187880826
rfemur -24.0644992843903 5.409640502592447 27.112638867365913
rtibia 30.595132355262642
rfoot -5.026383346084062 -6.604857616634826
rtoes 7.6814324289859375
lowerback 10.538935553190303 -0.637530953689837 0.6686303977592403
upperback 0.61599304359118 -0.6051133114742464 2.5032261337525283
thorax -4.945488216650028 -0.328843799134761 2.5015150444198335
lowerneck -15.971065190885994 -2.6527527367790613 -3.010985496152335
upperneck 23.521272376932817 -3.0188912269356902 1.0491208973632993
head 10.27723918885454 -1.5642315203979775 0.44974348184861573
lclavicle -1.3909341357949146e-15 -1.8468049633101635e-15
lhumerus -30.309555759089715 2.5408977504360744 80.93123171060677
lradius 31.065374751742798
lwrist 4.383590548519753
lhand -26.207138066166916 25.115547693853365
lfingers 7.125019999999999
lthumb 0.2772163489072397 55.05483347067844
rclavicle -1.3859746008590925e-15 -1.8426979411363673e-15
rhumerus -35.807881437542584 -27.385055000405178 -70.98749825535455
rradius 19.271522878130543
rwrist 11.544047244535403
rhand -17.641137876252486 22.776680603097834
rfingers 7.125019999999999
rthumb 8.577847788202131 -6.868544331328099
80
root -0.05406534697810661 17.806272354736603 16.137981841252117 -3.4341310003546366 0.8979496326005132 -4.539579150448011
lfemur -8.677315906315153 2.0579898972744974 -15.218934354011655
ltibia 49.702733079332994
lfoot -4.075990718194738 -5.3797250073534535
ltoes -13.400575612645907
rfemur -19.420178502244934 6.514298852752419 28.783900484742233
rtibia 29.194832464310164
rfoot -5.407942372549996 -6.606769759088518
rtoes 7.61751949593357
lowerback 9.6574628983392 -1.0104842879196245 2.0993330624734137
upperback 0.5501343139346213 -0.7478461003833259 2.800531836468285
thorax -4.962719908297478 -0.394599638862906 2.1890919390039114
lowerneck -15.816381597959648 -2.559814272642776 -2.9102701038339664
upperneck 23.68061925113551 -2.8187527529907523 0.7311444500490388
head 10.279445676390974 -1.498989048987382 0.38989772575476384
lclavicle -1.3908031828570752e-15 -1.8466568234501724e-15
lhumerus -30.909687341526297 2.59564746580372 80.9662481109615
lradius 30.950995288766915
lwrist 4.754598392445757
lhand -26.288399318248064 25.039711623724934
lfingers 7.125019999999999
lthumb 0.1754523868817497 54.88569065491754
rclavicle -1.385333526668144e-15 -1.8419105574446715e-15
rhumerus -35.940582533017654 -27.949912476541087 -70.30365721787776
rradius 18.864640728757227
rwrist 12.25467980989242
rhand -17.634225370730796 22.64046638282912
rfingers 7.125019999999999
rthumb 8.584923010485898 -7.052457177372226
